# xmcd CD database file
#
# Track frame offsets:
#	150
#	18881
#	34923
#	54212
#	75493
#	96652
#	120364
#	136518
#	160261
#	174593
#	197253
#
# Disc length: 2854 seconds
#
# Revision: 0
# Processed by: cddbd v1.5.2PL0 Copyright (c) Steve Scherf et al.
# Submitted via: CDex 1.51
#
DISCID=790b240b
DTITLE=Asa - Jailer
DYEAR=2007
DGENRE=Jazz
TTITLE0=Jailer
TTITLE1=360
TTITLE2=Bibanke
TTITLE3=Subway
TTITLE4=Fire on the Mountain
TTITLE5=Eye Adaba
TTITLE6=No One Knows
TTITLE7=Awe
TTITLE8=Peace
TTITLE9=So Beautiful
TTITLE10=Jba
EXTD=YEAR: 2007
EXTT0=
EXTT1=
EXTT2=
EXTT3=
EXTT4=
EXTT5=
EXTT6=
EXTT7=
EXTT8=
EXTT9=
EXTT10=
PLAYORDER=
